├óΓÇôΓÇ£├óΓÇôΓÇ£├óΓÇôΓÇ£├óΓÇôΓÇ£├óΓÇôΓÇÖ├óΓÇôΓÇÖ├óΓÇôΓÇ£├óΓÇôΓÇ£├óΓÇôΓÇ£├óΓÇôΓÇ£├óΓÇôΓÇ£├óΓÇôΓÇ£├óΓÇôΓÇÖ├óΓÇôΓÇÖ├óΓÇôΓÇ£├óΓÇôΓÇ£├óΓÇôΓÇ£├óΓÇôΓÇ£├óΓÇôΓÇ£├óΓÇôΓÇ£├óΓÇôΓÇÖ├óΓÇôΓÇÖ├óΓÇôΓÇ£├óΓÇôΓÇ£├óΓÇôΓÇ£├óΓÇôΓÇ£├óΓÇôΓÇ£├óΓÇôΓÇ£├óΓÇôΓÇÖ├óΓÇôΓÇÖ├óΓÇôΓÇ£├óΓÇôΓÇ£├óΓÇôΓÇ£├óΓÇôΓÇ£├óΓÇôΓÇ£├óΓÇôΓÇÖ├óΓÇôΓÇÖ├óΓÇôΓÇ£├óΓÇôΓÇ£├óΓÇôΓÇ£├óΓÇôΓÇ£├óΓÇôΓÇ£├óΓÇôΓÇ£├óΓÇôΓÇÖ├óΓÇôΓÇÖ├óΓÇôΓÇ£├óΓÇôΓÇ£├óΓÇôΓÇ£├óΓÇôΓÇ£├óΓÇôΓÇ£├óΓÇôΓÇ£├óΓÇôΓÇÖ├óΓÇôΓÇÖ├óΓÇôΓÇ£├óΓÇôΓÇ£├óΓÇôΓÇ£├óΓÇôΓÇ£├óΓÇôΓÇ£├óΓÇôΓÇ£├óΓÇôΓÇÖ├óΓÇôΓÇÖ├óΓÇôΓÇ£├óΓÇôΓÇ£├óΓÇôΓÇ£├óΓÇôΓÇ£├óΓÇôΓÇ£├óΓÇôΓÇÖ├óΓÇôΓÇÖ├óΓÇôΓÇ£├óΓÇôΓÇ£├óΓÇôΓÇ£├óΓÇôΓÇ£├óΓÇôΓÇ£├óΓÇôΓÇ£├óΓÇôΓÇÖ├óΓÇôΓÇÖ├óΓÇôΓÇ£├óΓÇôΓÇ£├óΓÇôΓÇ£├óΓÇôΓÇ£├óΓÇôΓÇ£├óΓÇôΓÇ£
├óΓÇôΓÇ£├óΓÇôΓÇ£├óΓÇôΓÇ£├óΓÇôΓÇ£├óΓÇôΓÇÖ├óΓÇôΓÇÖ├óΓÇôΓÇ£├óΓÇôΓÇ£├óΓÇôΓÇ£├óΓÇôΓÇ£├óΓÇôΓÇ£├óΓÇôΓÇ£├óΓÇôΓÇÖ├óΓÇôΓÇÖ├óΓÇôΓÇ£├óΓÇôΓÇ£├óΓÇôΓÇ£├óΓÇôΓÇ£├óΓÇôΓÇ£├óΓÇôΓÇ£├óΓÇôΓÇÖ├óΓÇôΓÇÖ├óΓÇôΓÇ£├óΓÇôΓÇ£├óΓÇôΓÇ£├óΓÇôΓÇ£├óΓÇôΓÇ£├óΓÇôΓÇ£├óΓÇôΓÇÖ├óΓÇôΓÇÖ├óΓÇôΓÇ£├óΓÇôΓÇ£├óΓÇôΓÇ£├óΓÇôΓÇ£├óΓÇôΓÇ£├óΓÇôΓÇÖ├óΓÇôΓÇÖ├óΓÇôΓÇ£├óΓÇôΓÇ£├óΓÇôΓÇ£├óΓÇôΓÇ£├óΓÇôΓÇ£├óΓÇôΓÇ£├óΓÇôΓÇÖ├óΓÇôΓÇÖ├óΓÇôΓÇ£├óΓÇôΓÇ£├óΓÇôΓÇ£├óΓÇôΓÇ£├óΓÇôΓÇ£├óΓÇôΓÇ£├óΓÇôΓÇÖ├óΓÇôΓÇÖ├óΓÇôΓÇ£├óΓÇôΓÇ£├óΓÇôΓÇ£├óΓÇôΓÇ£├óΓÇôΓÇ£├óΓÇôΓÇ£├óΓÇôΓÇÖ├óΓÇôΓÇÖ├óΓÇôΓÇ£├óΓÇôΓÇ£├óΓÇôΓÇ£├óΓÇôΓÇ£├óΓÇôΓÇ£├óΓÇôΓÇÖ├óΓÇôΓÇÖ├óΓÇôΓÇ£├óΓÇôΓÇ£├óΓÇôΓÇ£├óΓÇôΓÇ£├óΓÇôΓÇ£├óΓÇôΓÇ£├óΓÇôΓÇÖ├óΓÇôΓÇÖ├óΓÇôΓÇ£├óΓÇôΓÇ£├óΓÇôΓÇ£├óΓÇôΓÇ£├óΓÇôΓÇ£├óΓÇôΓÇ£
Format                           : AVI
Format/Info                      : Audio Video Interleave
File size                        : 53.9 MiB
Duration                         : 3mn 49s
Overall bit rate                 : 1 973 Kbps
Writing application              : Lavf52.32.0

Video
ID                               : 0
Format                           : MPEG-4 Visual
Format profile                   : Simple@L1
Format settings, BVOP            : No
Format settings, QPel            : No
Format settings, GMC             : No warppoints
Format settings, Matrix          : Default (H.263)
Codec ID                         : DIVX
Codec ID/Info                    : Project Mayo
Codec ID/Hint                    : DivX 4
Duration                         : 3mn 49s
Bit rate                         : 1 640 Kbps
Width                            : 640 pixels
Height                           : 360 pixels
Display aspect ratio             : 16:9
Frame rate                       : 23.976 fps
Color space                      : YUV
Chroma subsampling               : 4:2:0
Bit depth                        : 8 bits
Scan type                        : Progressive
Bits/(Pixel*Frame)               : 0.297
Stream size                      : 44.8 MiB (83%)
Writing library                  : Lavc52.22.3

Audio
ID                               : 1
Format                           : MPEG Audio
Format version                   : Version 1
Format profile                   : Layer 3
Mode                             : Joint stereo
Mode extension                   : MS Stereo
Codec ID                         : 55
Codec ID/Hint                    : MP3
Duration                         : 3mn 49s
Bit rate mode                    : Constant
Bit rate                         : 320 Kbps
Channel(s)                       : 2 channels
Sampling rate                    : 44.1 KHz
Stream size                      : 8.74 MiB (16%)
Alignment                        : Aligned on interleaves
Interleave, duration             : 26 ms (0.63 video frame)
Writing library                  : LAME3.98.2

├óΓÇôΓÇ£├óΓÇôΓÇ£├óΓÇôΓÇ£├óΓÇôΓÇ£├óΓÇôΓÇÖ├óΓÇôΓÇÖ├óΓÇôΓÇ£├óΓÇôΓÇ£├óΓÇôΓÇ£├óΓÇôΓÇ£├óΓÇôΓÇ£├óΓÇôΓÇ£├óΓÇôΓÇÖ├óΓÇôΓÇÖ├óΓÇôΓÇ£├óΓÇôΓÇ£├óΓÇôΓÇ£├óΓÇôΓÇ£├óΓÇôΓÇ£├óΓÇôΓÇ£├óΓÇôΓÇÖ├óΓÇôΓÇÖ├óΓÇôΓÇ£├óΓÇôΓÇ£├óΓÇôΓÇ£├óΓÇôΓÇ£├óΓÇôΓÇ£├óΓÇôΓÇ£├óΓÇôΓÇÖ├óΓÇôΓÇÖ├óΓÇôΓÇ£├óΓÇôΓÇ£├óΓÇôΓÇ£├óΓÇôΓÇ£├óΓÇôΓÇ£├óΓÇôΓÇÖ├óΓÇôΓÇÖ├óΓÇôΓÇ£├óΓÇôΓÇ£├óΓÇôΓÇ£├óΓÇôΓÇ£├óΓÇôΓÇ£├óΓÇôΓÇ£├óΓÇôΓÇÖ├óΓÇôΓÇÖ├óΓÇôΓÇ£├óΓÇôΓÇ£├óΓÇôΓÇ£├óΓÇôΓÇ£├óΓÇôΓÇ£├óΓÇôΓÇ£├óΓÇôΓÇÖ├óΓÇôΓÇÖ├óΓÇôΓÇ£├óΓÇôΓÇ£├óΓÇôΓÇ£├óΓÇôΓÇ£├óΓÇôΓÇ£├óΓÇôΓÇ£├óΓÇôΓÇÖ├óΓÇôΓÇÖ├óΓÇôΓÇ£├óΓÇôΓÇ£├óΓÇôΓÇ£├óΓÇôΓÇ£├óΓÇôΓÇ£├óΓÇôΓÇÖ├óΓÇôΓÇÖ├óΓÇôΓÇ£├óΓÇôΓÇ£├óΓÇôΓÇ£├óΓÇôΓÇ£├óΓÇôΓÇ£├óΓÇôΓÇ£├óΓÇôΓÇÖ├óΓÇôΓÇÖ├óΓÇôΓÇ£├óΓÇôΓÇ£├óΓÇôΓÇ£├óΓÇôΓÇ£├óΓÇôΓÇ£├óΓÇôΓÇ£
├óΓÇôΓÇ£├óΓÇôΓÇ£├óΓÇôΓÇ£├óΓÇôΓÇ£├óΓÇôΓÇÖ├óΓÇôΓÇÖ├óΓÇôΓÇ£├óΓÇôΓÇ£├óΓÇôΓÇ£├óΓÇôΓÇ£├óΓÇôΓÇ£├óΓÇôΓÇ£├óΓÇôΓÇÖ├óΓÇôΓÇÖ├óΓÇôΓÇ£├óΓÇôΓÇ£├óΓÇôΓÇ£├óΓÇôΓÇ£├óΓÇôΓÇ£├óΓÇôΓÇ£├óΓÇôΓÇÖ├óΓÇôΓÇÖ├óΓÇôΓÇ£├óΓÇôΓÇ£├óΓÇôΓÇ£├óΓÇôΓÇ£├óΓÇôΓÇ£├óΓÇôΓÇ£├óΓÇôΓÇÖ├óΓÇôΓÇÖ├óΓÇôΓÇ£├óΓÇôΓÇ£├óΓÇôΓÇ£├óΓÇôΓÇ£├óΓÇôΓÇ£├óΓÇôΓÇÖ├óΓÇôΓÇÖ├óΓÇôΓÇ£├óΓÇôΓÇ£├óΓÇôΓÇ£├óΓÇôΓÇ£├óΓÇôΓÇ£├óΓÇôΓÇ£├óΓÇôΓÇÖ├óΓÇôΓÇÖ├óΓÇôΓÇ£├óΓÇôΓÇ£├óΓÇôΓÇ£├óΓÇôΓÇ£├óΓÇôΓÇ£├óΓÇôΓÇ£├óΓÇôΓÇÖ├óΓÇôΓÇÖ├óΓÇôΓÇ£├óΓÇôΓÇ£├óΓÇôΓÇ£├óΓÇôΓÇ£├óΓÇôΓÇ£├óΓÇôΓÇ£├óΓÇôΓÇÖ├óΓÇôΓÇÖ├óΓÇôΓÇ£├óΓÇôΓÇ£├óΓÇôΓÇ£├óΓÇôΓÇ£├óΓÇôΓÇ£├óΓÇôΓÇÖ├óΓÇôΓÇÖ├óΓÇôΓÇ£├óΓÇôΓÇ£├óΓÇôΓÇ£├óΓÇôΓÇ£├óΓÇôΓÇ£├óΓÇôΓÇ£├óΓÇôΓÇÖ├óΓÇôΓÇÖ├óΓÇôΓÇ£├óΓÇôΓÇ£├óΓÇôΓÇ£├óΓÇôΓÇ£├óΓÇôΓÇ£├óΓÇôΓÇ£
├óΓÇôΓÇ£├óΓÇôΓÇ£├óΓÇôΓÇ£├óΓÇôΓÇ£├óΓÇôΓÇÖ├óΓÇôΓÇÖ├óΓÇôΓÇ£├óΓÇôΓÇ£├óΓÇôΓÇ£├óΓÇôΓÇ£├óΓÇôΓÇ£├óΓÇôΓÇ£├óΓÇôΓÇÖ├óΓÇôΓÇÖ├óΓÇôΓÇ£├óΓÇôΓÇ£├óΓÇôΓÇ£├óΓÇôΓÇ£├óΓÇôΓÇ£├óΓÇôΓÇ£├óΓÇôΓÇÖ├óΓÇôΓÇÖ├óΓÇôΓÇ£       SCREENSHOTS             ├óΓÇôΓÇ£├óΓÇôΓÇ£├óΓÇôΓÇ£├óΓÇôΓÇ£├óΓÇôΓÇ£├óΓÇôΓÇÖ├óΓÇôΓÇÖ├óΓÇôΓÇ£├óΓÇôΓÇ£├óΓÇôΓÇ£├óΓÇôΓÇ£├óΓÇôΓÇ£├óΓÇôΓÇÖ├óΓÇôΓÇÖ├óΓÇôΓÇ£├óΓÇôΓÇ£├óΓÇôΓÇ£├óΓÇôΓÇ£├óΓÇôΓÇ£├óΓÇôΓÇ£├óΓÇôΓÇÖ├óΓÇôΓÇÖ├óΓÇôΓÇ£├óΓÇôΓÇ£├óΓÇôΓÇ£├óΓÇôΓÇ£├óΓÇôΓÇ£├óΓÇôΓÇ£├óΓÇôΓÇÖ├óΓÇôΓÇÖ├óΓÇôΓÇ£├óΓÇôΓÇ£├óΓÇôΓÇ£├óΓÇôΓÇ£├óΓÇôΓÇ£├óΓÇôΓÇ£├óΓÇôΓÇÖ├óΓÇôΓÇÖ├óΓÇôΓÇ£├óΓÇôΓÇ£├óΓÇôΓÇ£├óΓÇôΓÇ£├óΓÇôΓÇ£├óΓÇôΓÇÖ├óΓÇôΓÇÖ├óΓÇôΓÇ£├óΓÇôΓÇ£├óΓÇôΓÇ£├óΓÇôΓÇ£├óΓÇôΓÇ£├óΓÇôΓÇ£├óΓÇôΓÇÖ├óΓÇôΓÇÖ├óΓÇôΓÇ£├óΓÇôΓÇ£├óΓÇôΓÇ£├óΓÇôΓÇ£├óΓÇôΓÇ£├óΓÇôΓÇ£

                          http://bayimg.com/BAnnCAACH

├óΓÇôΓÇ£├óΓÇôΓÇ£├óΓÇôΓÇ£├óΓÇôΓÇ£├óΓÇôΓÇÖ├óΓÇôΓÇÖ├óΓÇôΓÇ£├óΓÇôΓÇ£├óΓÇôΓÇ£├óΓÇôΓÇ£├óΓÇôΓÇ£├óΓÇôΓÇ£├óΓÇôΓÇÖ├óΓÇôΓÇÖ├óΓÇôΓÇ£├óΓÇôΓÇ£├óΓÇôΓÇ£├óΓÇôΓÇ£├óΓÇôΓÇ£├óΓÇôΓÇ£├óΓÇôΓÇÖ├óΓÇôΓÇÖ├óΓÇôΓÇ£├óΓÇôΓÇ£├óΓÇôΓÇ£├óΓÇôΓÇ£├óΓÇôΓÇ£├óΓÇôΓÇ£├óΓÇôΓÇÖ├óΓÇôΓÇÖ├óΓÇôΓÇ£├óΓÇôΓÇ£├óΓÇôΓÇ£├óΓÇôΓÇ£├óΓÇôΓÇ£├óΓÇôΓÇÖ├óΓÇôΓÇÖ├óΓÇôΓÇ£├óΓÇôΓÇ£├óΓÇôΓÇ£├óΓÇôΓÇ£├óΓÇôΓÇ£├óΓÇôΓÇ£├óΓÇôΓÇÖ├óΓÇôΓÇÖ├óΓÇôΓÇ£├óΓÇôΓÇ£├óΓÇôΓÇ£├óΓÇôΓÇ£├óΓÇôΓÇ£├óΓÇôΓÇ£├óΓÇôΓÇÖ├óΓÇôΓÇÖ├óΓÇôΓÇ£├óΓÇôΓÇ£├óΓÇôΓÇ£├óΓÇôΓÇ£├óΓÇôΓÇ£├óΓÇôΓÇ£├óΓÇôΓÇÖ├óΓÇôΓÇÖ├óΓÇôΓÇ£├óΓÇôΓÇ£├óΓÇôΓÇ£├óΓÇôΓÇ£├óΓÇôΓÇ£├óΓÇôΓÇÖ├óΓÇôΓÇÖ├óΓÇôΓÇ£├óΓÇôΓÇ£├óΓÇôΓÇ£├óΓÇôΓÇ£├óΓÇôΓÇ£├óΓÇôΓÇ£├óΓÇôΓÇÖ├óΓÇôΓÇÖ├óΓÇôΓÇ£├óΓÇôΓÇ£├óΓÇôΓÇ£├óΓÇôΓÇ£├óΓÇôΓÇ£├óΓÇôΓÇ£
├óΓÇôΓÇ£├óΓÇôΓÇ£├óΓÇôΓÇ£├óΓÇôΓÇ£├óΓÇôΓÇÖ├óΓÇôΓÇÖ├óΓÇôΓÇ£├óΓÇôΓÇ£├óΓÇôΓÇ£├óΓÇôΓÇ£├óΓÇôΓÇ£├óΓÇôΓÇ£├óΓÇôΓÇÖ├óΓÇôΓÇÖ├óΓÇôΓÇ£├óΓÇôΓÇ£├óΓÇôΓÇ£├óΓÇôΓÇ£├óΓÇôΓÇ£├óΓÇôΓÇ£├óΓÇôΓÇÖ├óΓÇôΓÇÖ├óΓÇôΓÇ£├óΓÇôΓÇ£├óΓÇôΓÇ£├óΓÇôΓÇ£├óΓÇôΓÇ£├óΓÇôΓÇ£├óΓÇôΓÇÖ├óΓÇôΓÇÖ├óΓÇôΓÇ£├óΓÇôΓÇ£├óΓÇôΓÇ£├óΓÇôΓÇ£├óΓÇôΓÇ£├óΓÇôΓÇÖ├óΓÇôΓÇÖ├óΓÇôΓÇ£├óΓÇôΓÇ£├óΓÇôΓÇ£├óΓÇôΓÇ£├óΓÇôΓÇ£├óΓÇôΓÇ£├óΓÇôΓÇÖ├óΓÇôΓÇÖ├óΓÇôΓÇ£├óΓÇôΓÇ£├óΓÇôΓÇ£├óΓÇôΓÇ£├óΓÇôΓÇ£├óΓÇôΓÇ£├óΓÇôΓÇÖ├óΓÇôΓÇÖ├óΓÇôΓÇ£├óΓÇôΓÇ£├óΓÇôΓÇ£├óΓÇôΓÇ£├óΓÇôΓÇ£├óΓÇôΓÇ£├óΓÇôΓÇÖ├óΓÇôΓÇÖ├óΓÇôΓÇ£├óΓÇôΓÇ£├óΓÇôΓÇ£├óΓÇôΓÇ£├óΓÇôΓÇ£├óΓÇôΓÇÖ├óΓÇôΓÇÖ├óΓÇôΓÇ£├óΓÇôΓÇ£├óΓÇôΓÇ£├óΓÇôΓÇ£├óΓÇôΓÇ£├óΓÇôΓÇ£├óΓÇôΓÇÖ├óΓÇôΓÇÖ├óΓÇôΓÇ£├óΓÇôΓÇ£├óΓÇôΓÇ£├óΓÇôΓÇ£├óΓÇôΓÇ£├óΓÇôΓÇ£
